<svg width="17" height="16" viewBox="0 0 17 16" fill="none" xmlns="http://www.w3.org/2000/svg">
<path d="M0.803955 2C0.803955 0.895431 1.69939 0 2.80396 0H14.804C15.9085 0 16.804 0.895431 16.804 2V14C16.804 15.1046 15.9085 16 14.804 16H2.80396C1.69939 16 0.803955 15.1046 0.803955 14V2Z" fill="#F0B90B"/>
<path d="M5.51399 8L4.15849 9.35485L2.80396 8L4.15849 6.64515L5.51399 8ZM8.80323 4.70827L11.1258 7.0306L12.4809 5.67575L10.1583 3.35341L8.80323 2L7.44822 3.35485L5.12512 5.67719L6.48014 7.03204L8.80323 4.70827ZM13.4489 6.6437L12.0939 7.99856L13.4489 9.35341L14.804 7.99856L13.4489 6.6437ZM8.80323 11.2927L6.48158 8.96796L5.12657 10.3228L7.44966 12.6451L8.80323 14L10.1583 12.6451L12.4809 10.3228L11.1258 8.96796L8.80323 11.2927ZM8.80323 9.35726L10.1583 8.0024L8.80323 6.64515L7.44822 8L8.80323 9.35726Z" fill="black"/>
</svg>
